<mxfile host="app.diagrams.net" modified="2023-10-22T02:58:12.452Z" agent="Mozilla/5.0 (Macintosh; Intel Mac OS X 10_15_7) AppleWebKit/537.36 (KHTML, like Gecko) Chrome/117.0.0.0 Safari/537.36" etag="1WVu-de6L6GUycDxtiCx" version="22.0.4" type="github">
  <diagram id="C5RBs43oDa-KdzZeNtuy" name="Page-1">
    <mxGraphModel dx="3812" dy="2098" grid="1" gridSize="10" guides="1" tooltips="1" connect="1" arrows="1" fold="1" page="1" pageScale="1" pageWidth="827" pageHeight="1169" math="0" shadow="0">
      <root>
        <mxCell id="WIyWlLk6GJQsqaUBKTNV-0" />
        <mxCell id="WIyWlLk6GJQsqaUBKTNV-1" parent="WIyWlLk6GJQsqaUBKTNV-0" />
        <mxCell id="trqLVfWNX-luN9Pz_bpV-160" value="" style="edgeStyle=orthogonalEdgeStyle;rounded=0;orthogonalLoop=1;jettySize=auto;html=1;" edge="1" parent="WIyWlLk6GJQsqaUBKTNV-1" source="trqLVfWNX-luN9Pz_bpV-161" target="trqLVfWNX-luN9Pz_bpV-165">
          <mxGeometry relative="1" as="geometry" />
        </mxCell>
        <mxCell id="trqLVfWNX-luN9Pz_bpV-161" value="PENDAFTARAN" style="rounded=1;whiteSpace=wrap;html=1;fontSize=12;glass=0;strokeWidth=1;shadow=0;fillColor=#60a917;fontColor=#ffffff;strokeColor=#2D7600;" vertex="1" parent="WIyWlLk6GJQsqaUBKTNV-1">
          <mxGeometry x="330" y="132" width="120" height="40" as="geometry" />
        </mxCell>
        <mxCell id="trqLVfWNX-luN9Pz_bpV-162" value="" style="edgeStyle=orthogonalEdgeStyle;rounded=0;orthogonalLoop=1;jettySize=auto;html=1;" edge="1" parent="WIyWlLk6GJQsqaUBKTNV-1" source="trqLVfWNX-luN9Pz_bpV-163" target="trqLVfWNX-luN9Pz_bpV-169">
          <mxGeometry relative="1" as="geometry" />
        </mxCell>
        <mxCell id="trqLVfWNX-luN9Pz_bpV-163" value="VALIDASI AKUN DIBAGI MENJADI 2&amp;nbsp;" style="rounded=0;whiteSpace=wrap;html=1;" vertex="1" parent="WIyWlLk6GJQsqaUBKTNV-1">
          <mxGeometry x="330" y="322" width="120" height="60" as="geometry" />
        </mxCell>
        <mxCell id="trqLVfWNX-luN9Pz_bpV-164" value="" style="edgeStyle=orthogonalEdgeStyle;rounded=0;orthogonalLoop=1;jettySize=auto;html=1;" edge="1" parent="WIyWlLk6GJQsqaUBKTNV-1" source="trqLVfWNX-luN9Pz_bpV-165" target="trqLVfWNX-luN9Pz_bpV-163">
          <mxGeometry relative="1" as="geometry" />
        </mxCell>
        <mxCell id="trqLVfWNX-luN9Pz_bpV-165" value="INPUT DATA PENDAFTARAN" style="shape=parallelogram;perimeter=parallelogramPerimeter;whiteSpace=wrap;html=1;fixedSize=1;" vertex="1" parent="WIyWlLk6GJQsqaUBKTNV-1">
          <mxGeometry x="330" y="222" width="120" height="60" as="geometry" />
        </mxCell>
        <mxCell id="trqLVfWNX-luN9Pz_bpV-166" value="&lt;span style=&quot;font-size: 11px;&quot;&gt;Calon anggota terdiri dari 2 bagian:&lt;br&gt;1. Petani&lt;br&gt;2. Jasa Pengantar&lt;br&gt;&lt;/span&gt;" style="text;html=1;align=left;verticalAlign=middle;resizable=0;points=[];autosize=1;strokeColor=#82b366;fillColor=#d5e8d4;" vertex="1" parent="WIyWlLk6GJQsqaUBKTNV-1">
          <mxGeometry x="460" y="222" width="200" height="60" as="geometry" />
        </mxCell>
        <mxCell id="trqLVfWNX-luN9Pz_bpV-167" value="" style="edgeStyle=orthogonalEdgeStyle;rounded=0;orthogonalLoop=1;jettySize=auto;html=1;" edge="1" parent="WIyWlLk6GJQsqaUBKTNV-1" source="trqLVfWNX-luN9Pz_bpV-169" target="trqLVfWNX-luN9Pz_bpV-171">
          <mxGeometry relative="1" as="geometry" />
        </mxCell>
        <mxCell id="trqLVfWNX-luN9Pz_bpV-168" value="" style="edgeStyle=orthogonalEdgeStyle;rounded=0;orthogonalLoop=1;jettySize=auto;html=1;" edge="1" parent="WIyWlLk6GJQsqaUBKTNV-1" source="trqLVfWNX-luN9Pz_bpV-169" target="trqLVfWNX-luN9Pz_bpV-173">
          <mxGeometry relative="1" as="geometry" />
        </mxCell>
        <mxCell id="trqLVfWNX-luN9Pz_bpV-169" value="VALIDASI AKUN" style="rhombus;whiteSpace=wrap;html=1;rounded=0;" vertex="1" parent="WIyWlLk6GJQsqaUBKTNV-1">
          <mxGeometry x="350" y="430" width="80" height="102" as="geometry" />
        </mxCell>
        <mxCell id="trqLVfWNX-luN9Pz_bpV-170" value="" style="edgeStyle=orthogonalEdgeStyle;rounded=0;orthogonalLoop=1;jettySize=auto;html=1;" edge="1" parent="WIyWlLk6GJQsqaUBKTNV-1" source="trqLVfWNX-luN9Pz_bpV-171" target="trqLVfWNX-luN9Pz_bpV-175">
          <mxGeometry relative="1" as="geometry" />
        </mxCell>
        <mxCell id="trqLVfWNX-luN9Pz_bpV-171" value="AKUN TIDAK &lt;br&gt;AKTIF" style="shape=parallelogram;perimeter=parallelogramPerimeter;whiteSpace=wrap;html=1;fixedSize=1;rounded=0;" vertex="1" parent="WIyWlLk6GJQsqaUBKTNV-1">
          <mxGeometry x="490" y="451" width="120" height="60" as="geometry" />
        </mxCell>
        <mxCell id="trqLVfWNX-luN9Pz_bpV-172" value="" style="edgeStyle=orthogonalEdgeStyle;rounded=0;orthogonalLoop=1;jettySize=auto;html=1;" edge="1" parent="WIyWlLk6GJQsqaUBKTNV-1" source="trqLVfWNX-luN9Pz_bpV-173" target="trqLVfWNX-luN9Pz_bpV-180">
          <mxGeometry relative="1" as="geometry" />
        </mxCell>
        <mxCell id="trqLVfWNX-luN9Pz_bpV-173" value="AKUN TELAH &lt;br&gt;AKTIF" style="shape=parallelogram;perimeter=parallelogramPerimeter;whiteSpace=wrap;html=1;fixedSize=1;rounded=0;" vertex="1" parent="WIyWlLk6GJQsqaUBKTNV-1">
          <mxGeometry x="330" y="565" width="120" height="60" as="geometry" />
        </mxCell>
        <mxCell id="trqLVfWNX-luN9Pz_bpV-174" value="" style="edgeStyle=orthogonalEdgeStyle;rounded=0;orthogonalLoop=1;jettySize=auto;html=1;" edge="1" parent="WIyWlLk6GJQsqaUBKTNV-1" source="trqLVfWNX-luN9Pz_bpV-175" target="trqLVfWNX-luN9Pz_bpV-173">
          <mxGeometry relative="1" as="geometry">
            <Array as="points">
              <mxPoint x="460" y="600" />
              <mxPoint x="460" y="600" />
            </Array>
          </mxGeometry>
        </mxCell>
        <mxCell id="trqLVfWNX-luN9Pz_bpV-175" value="PROSES AKTIVASI&lt;br&gt;AKUN" style="rounded=0;whiteSpace=wrap;html=1;" vertex="1" parent="WIyWlLk6GJQsqaUBKTNV-1">
          <mxGeometry x="490" y="570" width="120" height="60" as="geometry" />
        </mxCell>
        <mxCell id="trqLVfWNX-luN9Pz_bpV-176" value="&lt;font style=&quot;font-size: 11px;&quot;&gt;Admin Verifikasi&lt;/font&gt;" style="text;html=1;align=center;verticalAlign=middle;resizable=0;points=[];autosize=1;strokeColor=#82b366;fillColor=#d5e8d4;" vertex="1" parent="WIyWlLk6GJQsqaUBKTNV-1">
          <mxGeometry x="565" y="518" width="100" height="30" as="geometry" />
        </mxCell>
        <mxCell id="trqLVfWNX-luN9Pz_bpV-177" value="" style="edgeStyle=orthogonalEdgeStyle;rounded=0;orthogonalLoop=1;jettySize=auto;html=1;" edge="1" parent="WIyWlLk6GJQsqaUBKTNV-1" source="trqLVfWNX-luN9Pz_bpV-180" target="trqLVfWNX-luN9Pz_bpV-184">
          <mxGeometry relative="1" as="geometry" />
        </mxCell>
        <mxCell id="trqLVfWNX-luN9Pz_bpV-178" value="" style="edgeStyle=orthogonalEdgeStyle;rounded=0;orthogonalLoop=1;jettySize=auto;html=1;" edge="1" parent="WIyWlLk6GJQsqaUBKTNV-1" source="trqLVfWNX-luN9Pz_bpV-180" target="trqLVfWNX-luN9Pz_bpV-185">
          <mxGeometry relative="1" as="geometry" />
        </mxCell>
        <mxCell id="trqLVfWNX-luN9Pz_bpV-179" value="" style="edgeStyle=orthogonalEdgeStyle;rounded=0;orthogonalLoop=1;jettySize=auto;html=1;" edge="1" parent="WIyWlLk6GJQsqaUBKTNV-1" source="trqLVfWNX-luN9Pz_bpV-180" target="trqLVfWNX-luN9Pz_bpV-189">
          <mxGeometry relative="1" as="geometry" />
        </mxCell>
        <mxCell id="trqLVfWNX-luN9Pz_bpV-180" value="LOGIN PENGGUNA" style="rounded=0;whiteSpace=wrap;html=1;fillColor=#b1ddf0;strokeColor=#10739e;" vertex="1" parent="WIyWlLk6GJQsqaUBKTNV-1">
          <mxGeometry x="330" y="730" width="120" height="60" as="geometry" />
        </mxCell>
        <mxCell id="trqLVfWNX-luN9Pz_bpV-182" value="" style="edgeStyle=orthogonalEdgeStyle;rounded=0;orthogonalLoop=1;jettySize=auto;html=1;strokeWidth=1;" edge="1" parent="WIyWlLk6GJQsqaUBKTNV-1" source="trqLVfWNX-luN9Pz_bpV-184" target="trqLVfWNX-luN9Pz_bpV-195">
          <mxGeometry relative="1" as="geometry" />
        </mxCell>
        <mxCell id="trqLVfWNX-luN9Pz_bpV-183" value="" style="edgeStyle=orthogonalEdgeStyle;rounded=0;orthogonalLoop=1;jettySize=auto;html=1;" edge="1" parent="WIyWlLk6GJQsqaUBKTNV-1" source="trqLVfWNX-luN9Pz_bpV-184" target="trqLVfWNX-luN9Pz_bpV-226">
          <mxGeometry relative="1" as="geometry" />
        </mxCell>
        <mxCell id="trqLVfWNX-luN9Pz_bpV-184" value="BERANDA PETANI" style="strokeWidth=1;html=1;shape=mxgraph.flowchart.display;whiteSpace=wrap;fillColor=#b1ddf0;strokeColor=#10739e;" vertex="1" parent="WIyWlLk6GJQsqaUBKTNV-1">
          <mxGeometry x="150" y="730" width="100" height="60" as="geometry" />
        </mxCell>
        <mxCell id="trqLVfWNX-luN9Pz_bpV-185" value="BERANDA JASA PENGANTAR" style="strokeWidth=1;html=1;shape=mxgraph.flowchart.display;whiteSpace=wrap;fillColor=#b1ddf0;strokeColor=#10739e;" vertex="1" parent="WIyWlLk6GJQsqaUBKTNV-1">
          <mxGeometry x="790" y="730" width="120" height="60" as="geometry" />
        </mxCell>
        <mxCell id="trqLVfWNX-luN9Pz_bpV-186" value="" style="edgeStyle=orthogonalEdgeStyle;rounded=0;orthogonalLoop=1;jettySize=auto;html=1;" edge="1" parent="WIyWlLk6GJQsqaUBKTNV-1" source="trqLVfWNX-luN9Pz_bpV-189" target="trqLVfWNX-luN9Pz_bpV-229">
          <mxGeometry relative="1" as="geometry" />
        </mxCell>
        <mxCell id="trqLVfWNX-luN9Pz_bpV-187" value="" style="edgeStyle=orthogonalEdgeStyle;rounded=0;orthogonalLoop=1;jettySize=auto;html=1;" edge="1" parent="WIyWlLk6GJQsqaUBKTNV-1" source="trqLVfWNX-luN9Pz_bpV-189" target="trqLVfWNX-luN9Pz_bpV-230">
          <mxGeometry relative="1" as="geometry" />
        </mxCell>
        <mxCell id="trqLVfWNX-luN9Pz_bpV-188" value="" style="edgeStyle=orthogonalEdgeStyle;rounded=0;orthogonalLoop=1;jettySize=auto;html=1;" edge="1" parent="WIyWlLk6GJQsqaUBKTNV-1" source="trqLVfWNX-luN9Pz_bpV-189" target="trqLVfWNX-luN9Pz_bpV-236">
          <mxGeometry relative="1" as="geometry" />
        </mxCell>
        <mxCell id="trqLVfWNX-luN9Pz_bpV-189" value="BERANDA ADMIN" style="strokeWidth=2;html=1;shape=mxgraph.flowchart.display;whiteSpace=wrap;fillColor=#b1ddf0;strokeColor=#10739e;" vertex="1" parent="WIyWlLk6GJQsqaUBKTNV-1">
          <mxGeometry x="340" y="1130" width="100" height="60" as="geometry" />
        </mxCell>
        <mxCell id="trqLVfWNX-luN9Pz_bpV-193" value="&lt;b&gt;&lt;font style=&quot;font-size: 22px;&quot;&gt;FLOWCHART APP PENJUALAN DISTRIBUSI HASIL PANEN&lt;br&gt;&lt;br&gt;&lt;/font&gt;&lt;/b&gt;" style="text;html=1;align=center;verticalAlign=middle;resizable=0;points=[];autosize=1;strokeColor=none;fillColor=none;" vertex="1" parent="WIyWlLk6GJQsqaUBKTNV-1">
          <mxGeometry x="70" y="18" width="640" height="70" as="geometry" />
        </mxCell>
        <mxCell id="trqLVfWNX-luN9Pz_bpV-194" value="" style="edgeStyle=orthogonalEdgeStyle;rounded=0;orthogonalLoop=1;jettySize=auto;html=1;strokeWidth=1;" edge="1" parent="WIyWlLk6GJQsqaUBKTNV-1" source="trqLVfWNX-luN9Pz_bpV-195" target="trqLVfWNX-luN9Pz_bpV-199">
          <mxGeometry relative="1" as="geometry" />
        </mxCell>
        <mxCell id="trqLVfWNX-luN9Pz_bpV-195" value="Input Data" style="html=1;strokeWidth=1;shape=manualInput;whiteSpace=wrap;rounded=1;size=26;arcSize=11;" vertex="1" parent="WIyWlLk6GJQsqaUBKTNV-1">
          <mxGeometry x="-10" y="730" width="100" height="60" as="geometry" />
        </mxCell>
        <mxCell id="trqLVfWNX-luN9Pz_bpV-196" value="" style="edgeStyle=orthogonalEdgeStyle;rounded=0;orthogonalLoop=1;jettySize=auto;html=1;strokeWidth=1;" edge="1" parent="WIyWlLk6GJQsqaUBKTNV-1" source="trqLVfWNX-luN9Pz_bpV-199" target="trqLVfWNX-luN9Pz_bpV-201">
          <mxGeometry relative="1" as="geometry" />
        </mxCell>
        <mxCell id="trqLVfWNX-luN9Pz_bpV-199" value="DATA DISTRIBUSI" style="rhombus;whiteSpace=wrap;html=1;strokeWidth=1;rounded=1;arcSize=11;" vertex="1" parent="WIyWlLk6GJQsqaUBKTNV-1">
          <mxGeometry x="-180" y="720" width="80" height="80" as="geometry" />
        </mxCell>
        <mxCell id="trqLVfWNX-luN9Pz_bpV-201" value="Pengajuan" style="shape=parallelogram;perimeter=parallelogramPerimeter;whiteSpace=wrap;html=1;fixedSize=1;strokeWidth=1;rounded=1;arcSize=11;" vertex="1" parent="WIyWlLk6GJQsqaUBKTNV-1">
          <mxGeometry x="-200" y="570" width="120" height="60" as="geometry" />
        </mxCell>
        <mxCell id="trqLVfWNX-luN9Pz_bpV-226" value="Rekapitulasi" style="shape=parallelogram;perimeter=parallelogramPerimeter;whiteSpace=wrap;html=1;fixedSize=1;strokeWidth=1;" vertex="1" parent="WIyWlLk6GJQsqaUBKTNV-1">
          <mxGeometry x="140" y="910" width="120" height="60" as="geometry" />
        </mxCell>
        <mxCell id="trqLVfWNX-luN9Pz_bpV-229" value="Master Data" style="shape=parallelogram;perimeter=parallelogramPerimeter;whiteSpace=wrap;html=1;fixedSize=1;strokeWidth=2;" vertex="1" parent="WIyWlLk6GJQsqaUBKTNV-1">
          <mxGeometry x="60" y="1130" width="120" height="60" as="geometry" />
        </mxCell>
        <mxCell id="trqLVfWNX-luN9Pz_bpV-230" value="Report Data" style="shape=parallelogram;perimeter=parallelogramPerimeter;whiteSpace=wrap;html=1;fixedSize=1;strokeWidth=2;" vertex="1" parent="WIyWlLk6GJQsqaUBKTNV-1">
          <mxGeometry x="330" y="1440" width="120" height="60" as="geometry" />
        </mxCell>
        <mxCell id="trqLVfWNX-luN9Pz_bpV-234" value="" style="edgeStyle=orthogonalEdgeStyle;rounded=0;orthogonalLoop=1;jettySize=auto;html=1;" edge="1" parent="WIyWlLk6GJQsqaUBKTNV-1" source="trqLVfWNX-luN9Pz_bpV-236" target="trqLVfWNX-luN9Pz_bpV-238">
          <mxGeometry relative="1" as="geometry" />
        </mxCell>
        <mxCell id="trqLVfWNX-luN9Pz_bpV-236" value="Data transaksi&lt;br&gt;" style="rhombus;whiteSpace=wrap;html=1;strokeWidth=2;" vertex="1" parent="WIyWlLk6GJQsqaUBKTNV-1">
          <mxGeometry x="530" y="1120" width="110" height="80" as="geometry" />
        </mxCell>
        <mxCell id="trqLVfWNX-luN9Pz_bpV-238" value="Menerima Pengajuan&lt;br&gt;" style="rounded=1;whiteSpace=wrap;html=1;strokeWidth=2;" vertex="1" parent="WIyWlLk6GJQsqaUBKTNV-1">
          <mxGeometry x="760" y="1130" width="120" height="60" as="geometry" />
        </mxCell>
        <mxCell id="trqLVfWNX-luN9Pz_bpV-248" value="&lt;b&gt;Dokumen syarat pendaftaran &lt;br&gt;sesuai ketentuan yang berlaku&lt;/b&gt;" style="text;html=1;align=left;verticalAlign=middle;resizable=0;points=[];autosize=1;fillColor=#f5f5f5;strokeColor=#666666;glass=0;rounded=0;shadow=0;gradientColor=#b3b3b3;" vertex="1" parent="WIyWlLk6GJQsqaUBKTNV-1">
          <mxGeometry x="460" y="300" width="200" height="40" as="geometry" />
        </mxCell>
        <mxCell id="trqLVfWNX-luN9Pz_bpV-249" value="&lt;span style=&quot;font-size: 11px;&quot;&gt;Pengajuan terdiri dari:&lt;br&gt;1. Jenis Kerjasama&lt;br&gt;2. Jenis Hasil Panen&lt;br&gt;3. Lampiran Hasil Panen&lt;br&gt;&lt;br&gt;&lt;/span&gt;" style="text;html=1;align=left;verticalAlign=middle;resizable=0;points=[];autosize=1;strokeColor=#82b366;fillColor=#d5e8d4;" vertex="1" parent="WIyWlLk6GJQsqaUBKTNV-1">
          <mxGeometry x="-350" y="555" width="140" height="90" as="geometry" />
        </mxCell>
        <mxCell id="trqLVfWNX-luN9Pz_bpV-251" value="&lt;span style=&quot;font-size: 11px;&quot;&gt;&lt;b&gt;Terdapat Integrasi titik Maps Petani,notifikasi WhatApss&lt;br&gt;&lt;/b&gt;&lt;br&gt;&lt;/span&gt;" style="text;html=1;align=left;verticalAlign=middle;resizable=0;points=[];autosize=1;strokeColor=#666666;fillColor=#f5f5f5;gradientColor=#b3b3b3;" vertex="1" parent="WIyWlLk6GJQsqaUBKTNV-1">
          <mxGeometry x="-180" y="513" width="320" height="40" as="geometry" />
        </mxCell>
        <mxCell id="trqLVfWNX-luN9Pz_bpV-252" value="&lt;b&gt;Data yang diterima terdiri dari&lt;/b&gt;:&lt;br&gt;1. data pengajuan petani&lt;br&gt;&lt;br&gt;&lt;b&gt;Data yang diteruskan terdiri dari:&lt;br&gt;&lt;/b&gt;1. Pemilihan jasa pengantar&lt;br&gt;2. hasil konfirmasi pengajuan" style="text;html=1;align=left;verticalAlign=middle;resizable=0;points=[];autosize=1;strokeColor=#82b366;fillColor=#d5e8d4;" vertex="1" parent="WIyWlLk6GJQsqaUBKTNV-1">
          <mxGeometry x="850" y="1200" width="210" height="100" as="geometry" />
        </mxCell>
        <mxCell id="trqLVfWNX-luN9Pz_bpV-253" value="&lt;b&gt;Data yang diterima terdiri dari:&lt;/b&gt;&lt;br&gt;&lt;div style=&quot;text-align: left;&quot;&gt;&lt;span style=&quot;background-color: initial;&quot;&gt;1. konfirmasi status pekerjaan&lt;/span&gt;&lt;/div&gt;&lt;div style=&quot;text-align: left;&quot;&gt;&lt;span style=&quot;background-color: initial;&quot;&gt;2. menerima&lt;/span&gt;&lt;/div&gt;&lt;div style=&quot;text-align: left;&quot;&gt;&lt;span style=&quot;background-color: initial;&quot;&gt;3. ditolak&lt;/span&gt;&lt;/div&gt;" style="text;html=1;align=center;verticalAlign=middle;resizable=0;points=[];autosize=1;strokeColor=#82b366;fillColor=#d5e8d4;gradientColor=none;" vertex="1" parent="WIyWlLk6GJQsqaUBKTNV-1">
          <mxGeometry x="840" y="800" width="200" height="70" as="geometry" />
        </mxCell>
        <mxCell id="trqLVfWNX-luN9Pz_bpV-254" value="&lt;b&gt;Jika diterima maka surat jalan akan dibuat oleh admin&lt;/b&gt;" style="text;html=1;align=center;verticalAlign=middle;resizable=0;points=[];autosize=1;rounded=0;fillColor=#f5f5f5;gradientColor=#b3b3b3;strokeColor=#666666;" vertex="1" parent="WIyWlLk6GJQsqaUBKTNV-1">
          <mxGeometry x="950" y="770" width="330" height="30" as="geometry" />
        </mxCell>
        <mxCell id="trqLVfWNX-luN9Pz_bpV-255" value="&lt;b&gt;data status terdiri dari:&lt;/b&gt;&lt;br&gt;1. menerima&lt;br&gt;2. ditolak&lt;br&gt;3. sedang mengambil hasil panen&lt;br&gt;4. sampai lokasi pengambilan hasil panen&lt;br&gt;5. sedang menuju kelokasi PT penyerahan hasil panen&lt;br&gt;6. sampai dilokasi PT penyerahan hasil panen&lt;br&gt;7. dikembalikan ke petani&lt;br&gt;8. sudah sampai hasil kembalian ke petani&lt;br&gt;9. barang diterima ke PT" style="text;html=1;align=left;verticalAlign=middle;resizable=0;points=[];autosize=1;strokeColor=#b85450;fillColor=#f8cecc;gradientColor=#ea6b66;" vertex="1" parent="WIyWlLk6GJQsqaUBKTNV-1">
          <mxGeometry x="1060" y="800" width="320" height="160" as="geometry" />
        </mxCell>
        <mxCell id="trqLVfWNX-luN9Pz_bpV-256" value="&lt;div style=&quot;text-align: left;&quot;&gt;&lt;b style=&quot;background-color: initial;&quot;&gt;data status terdiri dari:&lt;/b&gt;&lt;/div&gt;&lt;div style=&quot;text-align: left;&quot;&gt;&lt;span style=&quot;background-color: initial;&quot;&gt;1.pengajuan&lt;/span&gt;&lt;/div&gt;&lt;div style=&quot;text-align: left;&quot;&gt;&lt;span style=&quot;background-color: initial;&quot;&gt;2. diterima&lt;/span&gt;&lt;/div&gt;&lt;div style=&quot;text-align: left;&quot;&gt;&lt;span style=&quot;background-color: initial;&quot;&gt;3. ditolak&lt;/span&gt;&lt;/div&gt;&lt;div style=&quot;text-align: left;&quot;&gt;&lt;span style=&quot;background-color: initial;&quot;&gt;4. sedang proses pembayaran&lt;/span&gt;&lt;/div&gt;&lt;div style=&quot;text-align: left;&quot;&gt;&lt;span style=&quot;background-color: initial;&quot;&gt;5. pembayaran berhasil&lt;/span&gt;&lt;/div&gt;" style="text;html=1;align=center;verticalAlign=middle;resizable=0;points=[];autosize=1;strokeColor=#b85450;fillColor=#f8cecc;gradientColor=#ea6b66;" vertex="1" parent="WIyWlLk6GJQsqaUBKTNV-1">
          <mxGeometry x="-70" y="555" width="190" height="100" as="geometry" />
        </mxCell>
        <mxCell id="trqLVfWNX-luN9Pz_bpV-257" value="&lt;b&gt;Data Rekapitulasi terdiri dari:&lt;br&gt;&lt;/b&gt;1. report barang masuk (barang diterima/barang dikembalikan)&lt;br&gt;2. total pembayaran&lt;br&gt;3. mitra kerjasama" style="text;html=1;align=left;verticalAlign=middle;resizable=0;points=[];autosize=1;strokeColor=#82b366;fillColor=#d5e8d4;gradientColor=none;" vertex="1" parent="WIyWlLk6GJQsqaUBKTNV-1">
          <mxGeometry x="450" y="1450" width="360" height="70" as="geometry" />
        </mxCell>
        <mxCell id="trqLVfWNX-luN9Pz_bpV-258" value="&lt;b&gt;Data yang diterima terdiri dari&lt;/b&gt;:&lt;br&gt;1. data pengajuan petani&lt;br&gt;&lt;br&gt;&lt;b&gt;Data yang diteruskan terdiri dari:&lt;br&gt;&lt;/b&gt;1. Pemilihan jasa pengantar&lt;br&gt;2. hasil konfirmasi pengajuan" style="text;html=1;align=left;verticalAlign=middle;resizable=0;points=[];autosize=1;strokeColor=#82b366;fillColor=#d5e8d4;" vertex="1" parent="WIyWlLk6GJQsqaUBKTNV-1">
          <mxGeometry x="280" y="720" width="210" height="100" as="geometry" />
        </mxCell>
        <mxCell id="trqLVfWNX-luN9Pz_bpV-259" value="&lt;b&gt;Data Rekapitulasi terdiri dari:&lt;br&gt;&lt;/b&gt;1. report barang masuk (barang diterima/barang dikembalikan)&lt;br&gt;2. Total dibayarkan" style="text;html=1;align=left;verticalAlign=middle;resizable=0;points=[];autosize=1;strokeColor=#82b366;fillColor=#d5e8d4;gradientColor=none;" vertex="1" parent="WIyWlLk6GJQsqaUBKTNV-1">
          <mxGeometry x="-120" y="975" width="360" height="60" as="geometry" />
        </mxCell>
        <mxCell id="trqLVfWNX-luN9Pz_bpV-260" value="&lt;b&gt;Data master terdiri dari:&amp;nbsp;&lt;/b&gt;&lt;br&gt;1. verifikasi Akun pengguna&lt;br&gt;2. Data Mitra kerjasama&lt;br&gt;&lt;b&gt;3. &lt;i&gt;ditambahkan berdasarkan hasil final nanti&lt;/i&gt;&lt;/b&gt;" style="text;html=1;align=left;verticalAlign=middle;resizable=0;points=[];autosize=1;strokeColor=#b85450;fillColor=#f8cecc;gradientColor=#ea6b66;" vertex="1" parent="WIyWlLk6GJQsqaUBKTNV-1">
          <mxGeometry x="-90" y="1190" width="280" height="70" as="geometry" />
        </mxCell>
      </root>
    </mxGraphModel>
  </diagram>
</mxfile>
